<svg width="16" height="17" viewBox="0 0 16 17" fill="none" xmlns="http://www.w3.org/2000/svg">
<g id="Icons / General" clip-path="url(#clip0_2345_20201)">
<g id="Vector">
<path fill-rule="evenodd" clip-rule="evenodd" d="M3.3335 4.50008C3.15669 4.50008 2.98712 4.57032 2.86209 4.69534C2.73707 4.82037 2.66683 4.98994 2.66683 5.16675V14.5001C2.66683 14.6769 2.73707 14.8465 2.86209 14.9715C2.98712 15.0965 3.15669 15.1667 3.3335 15.1667H6.00016C6.36835 15.1667 6.66683 15.4652 6.66683 15.8334C6.66683 16.2016 6.36835 16.5001 6.00016 16.5001H3.3335C2.80306 16.5001 2.29436 16.2894 1.91928 15.9143C1.54421 15.5392 1.3335 15.0305 1.3335 14.5001V5.16675C1.3335 4.63632 1.54421 4.12761 1.91928 3.75253C2.29436 3.37746 2.80306 3.16675 3.3335 3.16675H6.00016C6.36835 3.16675 6.66683 3.46522 6.66683 3.83341C6.66683 4.2016 6.36835 4.50008 6.00016 4.50008H3.3335Z" fill="#505050"/>
<path fill-rule="evenodd" clip-rule="evenodd" d="M10.1954 6.02868C10.4558 5.76833 10.8779 5.76833 11.1382 6.02868L14.4716 9.36201C14.7319 9.62236 14.7319 10.0445 14.4716 10.3048L11.1382 13.6382C10.8779 13.8985 10.4558 13.8985 10.1954 13.6382C9.93508 13.3778 9.93508 12.9557 10.1954 12.6953L13.0574 9.83341L10.1954 6.97149C9.93508 6.71114 9.93508 6.28903 10.1954 6.02868Z" fill="#505050"/>
<path fill-rule="evenodd" clip-rule="evenodd" d="M5.3335 9.83341C5.3335 9.46523 5.63197 9.16675 6.00016 9.16675H14.0002C14.3684 9.16675 14.6668 9.46523 14.6668 9.83341C14.6668 10.2016 14.3684 10.5001 14.0002 10.5001H6.00016C5.63197 10.5001 5.3335 10.2016 5.3335 9.83341Z" fill="#505050"/>
</g>
</g>
<defs>
<clipPath id="clip0_2345_20201">
<rect width="16" height="16" fill="white" transform="translate(0 0.5)"/>
</clipPath>
</defs>
</svg>
