<svg xmlns="http://www.w3.org/2000/svg" xmlns:xlink="http://www.w3.org/1999/xlink" id="Capa_1" x="0px" y="0px" viewBox="0 0 741 224" style="enable-background:new 0 0 741 224;" xml:space="preserve"><path style="fill:#21445B;" d="M544.408,9.945l-0.003,90.317c50.831,0.181,91.983,41.431,91.983,92.304 c0,0.225-0.014,0.443-0.014,0.665l91.604,0.174c0-0.443,0.031-0.885,0.033-1.328C728.012,90.476,646.008,9.945,544.408,9.945z"></path><path style="fill:#009BD9;" d="M630.414,192.641c0-47.5-38.508-86.007-86.009-86.007v48.128c1.74-0.297,3.519-0.485,5.344-0.485 c17.452,0,31.604,14.15,31.604,31.591c0,0.456-0.055,0.886-0.072,1.328c-0.086,2.08-0.376,4.107-0.845,6.065h49.96 C630.397,193.052,630.414,192.847,630.414,192.641z"></path><path style="fill:#21445B;" d="M118.771,13.362v16.464H73.887c-9.773,0-17.346,1.866-22.714,5.598 c-5.37,3.733-8.053,9.243-8.053,16.531h75.651v16.464H43.12c0,7.902,1.99,13.457,5.973,16.661c3.981,3.206,7.692,5.093,11.13,5.663 c3.439,0.573,7.992,0.857,13.665,0.857h44.884v16.464h-45.97c-8.687,0-16.079-0.547-22.17-1.646 c-6.094-1.098-12.216-3.313-18.37-6.651c-7.36-4.566-12.578-10.054-15.655-16.465c-3.077-6.409-4.616-13.346-4.616-20.811 l0.363-5.663c0-3.426,0.48-6.762,1.448-10.01c0.964-3.248,2.172-6.322,3.62-9.221c1.448-2.898,3.136-5.443,5.067-7.64 c1.93-2.195,4.765-4.654,8.507-7.376c3.738-2.721,8.263-4.72,13.574-5.993c5.307-1.272,10.285-2.128,14.931-2.568 c4.643-0.44,9.321-0.659,14.026-0.659H118.771z"></path><path style="fill:#21445B;" d="M243.649,13.362v16.201h-44.884c-7.963,0-14.297,1.384-19.004,4.149 c-4.705,2.766-7.723,5.842-9.049,9.22c-1.328,3.382-2.293,6.5-2.894,9.353c-0.607,2.854-0.906,5.686-0.906,8.496v1.711v1.449 c0,1.231,0.059,2.569,0.181,4.017c0.118,1.449,0.36,3.207,0.721,5.269c0.361,2.065,1.174,4.281,2.437,6.653 c1.264,2.371,3.039,4.566,5.328,6.585c3.008,2.284,6.257,3.711,9.747,4.28c3.49,0.573,8.006,0.857,13.543,0.857h44.779v16.464 h-45.815c-8.659,0-16.022-0.547-22.093-1.646c-6.075-1.098-12.178-3.313-18.308-6.651c-7.336-4.566-12.539-10.054-15.605-16.465 c-3.064-6.409-4.598-13.346-4.598-20.811v-5.663c0-3.426,0.481-6.762,1.448-10.01c0.965-3.248,2.173-6.322,3.621-9.221 c1.448-2.898,3.136-5.443,5.067-7.64c1.929-2.195,4.764-4.654,8.507-7.376c3.737-2.721,8.262-4.72,13.574-5.993 c5.307-1.272,10.284-2.128,14.93-2.568c4.643-0.44,9.321-0.659,14.027-0.659H243.649z"></path><path style="fill:#21445B;" d="M290.341,46.649c-1.448,4.207-2.171,8.851-2.171,13.933c0,4.997,1.176,10.889,3.53,17.681 c2.352,6.792,7.027,11.087,14.027,12.884c6.995,1.796,12.908,2.693,17.735,2.693c4.705,0,9.23-0.48,13.574-1.446 c10.375-2.717,16.831-8.457,19.365-17.22c1.688-4.468,2.534-9.199,2.534-14.196c0-5.083-0.574-9.224-1.72-12.423 c-1.147-3.198-1.931-5.234-2.352-6.112c-0.424-0.876-1.33-2.211-2.715-4.009c-1.389-1.796-3.349-3.526-5.883-5.192 c-2.532-1.666-5.219-2.825-8.052-3.484c-2.837-0.656-5.402-1.115-7.693-1.379c-2.293-0.264-4.646-0.396-7.059-0.396 c-4.464,0-8.868,0.485-13.21,1.447C300.838,31.882,294.201,37.622,290.341,46.649z M262.47,39.836 c2.774-6.936,6.515-12.073,11.22-15.411c4.705-3.337,9.049-5.772,13.032-7.309c3.982-1.535,8.172-2.721,12.578-3.558 c4.403-0.834,8.353-1.382,11.854-1.646c3.499-0.264,7.539-0.396,12.126-0.396c8.688,0,15.534,0.463,20.542,1.384 c5.006,0.922,8.444,1.604,10.316,2.042c1.87,0.44,4.524,1.34,7.963,2.699c3.44,1.363,6.485,3.095,9.141,5.204 c6.153,4.303,10.615,9.901,13.393,16.793c2.774,6.894,4.163,13.941,4.163,21.141c0,7.112-1.389,14.204-4.163,21.271 c-2.778,7.069-7.33,12.757-13.665,17.057c-6.334,4.303-13.785,7.202-22.351,8.693c-8.567,1.493-16.894,2.24-24.976,2.24 c-8.085,0-15.867-0.659-23.346-1.977c-2.535-0.35-4.858-0.811-6.968-1.382c-2.112-0.57-4.738-1.47-7.873-2.701 c-3.139-1.228-6.306-2.918-9.502-5.07c-3.198-2.151-5.911-4.676-8.143-7.574c-2.234-2.896-4.344-6.892-6.334-11.985 c-1.992-5.091-2.987-11.372-2.987-18.835C258.488,53.228,259.814,46.336,262.47,39.836z"></path><path style="fill:#21445B;" d="M447.976,13.362h71.851v16.992H452.32c-14.238,0-21.356,4.127-21.356,12.381 c0,3.512,1.629,6.059,4.886,7.64c3.136,1.757,7.299,2.634,12.488,2.634h36.016c6.996,0,13.212,0.352,18.643,1.053 c4.945,0.79,10.044,2.921,15.292,6.387c5.25,3.47,7.873,9.901,7.873,19.298c0,2.546-0.272,4.896-0.814,7.047 c-0.542,2.152-1.628,4.674-3.257,7.573c-1.629,2.898-4.406,5.446-8.326,7.64c-3.921,2.196-8.596,3.733-14.025,4.609 c-4.949,0.967-11.343,1.449-19.185,1.449h-72.755v-16.99h68.411c6.757,0,11.974-0.724,15.656-2.174 c3.678-1.449,5.52-4.193,5.52-8.232v-1.977c-0.362-2.721-1.33-4.696-2.901-5.926c-2.057-1.317-4.384-2.193-6.982-2.635 c-2.599-0.438-5.713-0.658-9.337-0.658h-32.277c-13.903,0-24.631-2.109-32.188-6.322c-7.556-4.215-11.331-11.283-11.331-21.207 c0-5.005,1.146-9.483,3.438-13.434c2.291-3.952,5.43-7.001,9.411-9.154c3.982-2.151,8.566-3.665,13.756-4.544 C433.679,13.845,440.013,13.362,447.976,13.362z"></path><rect x="16.385" y="128.675" style="fill:#006A41;" width="505.995" height="1.833"></rect><rect x="20.312" y="143.99" style="fill:#21445B;" width="4.379" height="47.92"></rect><polygon style="fill:#21445B;" points="46.861,143.99 50.712,143.99 50.712,191.911 44.401,191.911 38.832,149.3 38.832,191.911  34.981,191.911 34.981,143.99 41.424,143.99 46.861,185.007 "></polygon><path style="fill:#21445B;" d="M68.433,172.131v-3.718h7.897v22.434c-2.434,0.975-4.734,1.46-6.902,1.46 c-5.489,0-8.232-2.808-8.232-8.429v-32.722c0-5.043,2.523-7.566,7.568-7.566c5.043,0,7.565,2.522,7.565,7.566v5.377h-4.379v-4.778 c0-2.963-1.063-4.447-3.186-4.447c-2.124,0-3.187,1.483-3.187,4.447v32.058c0,3.184,1.151,4.778,3.451,4.778 c1.284,0,2.258-0.22,2.922-0.664v-15.797H68.433z"></path><polygon style="fill:#21445B;" points="86.821,191.911 86.821,143.99 98.436,143.99 98.436,147.706 91.2,147.706 91.2,165.162  98.104,165.162 98.104,168.88 91.2,168.88 91.2,188.193 98.436,188.193 98.436,191.911 "></polygon><polygon style="fill:#21445B;" points="119.406,143.99 123.256,143.99 123.256,191.911 116.946,191.911 111.377,149.3  111.377,191.911 107.526,191.911 107.526,143.99 113.969,143.99 119.406,185.007 "></polygon><rect x="133.547" y="143.99" style="fill:#21445B;" width="4.379" height="47.92"></rect><polygon style="fill:#21445B;" points="148.417,191.911 148.417,143.99 160.032,143.99 160.032,147.706 152.796,147.706  152.796,165.162 159.7,165.162 159.7,168.88 152.796,168.88 152.796,188.193 160.032,188.193 160.032,191.911 "></polygon><path style="fill:#21445B;" d="M173.768,165.162h2.92c2.167,0,3.254-1.151,3.254-3.451v-10.752c0-2.167-1.239-3.254-3.718-3.254 h-2.455V165.162z M180.139,191.911v-20.111c0-1.947-1.151-2.919-3.451-2.919h-2.92v23.031h-4.382v-47.92h8.165 c2.344,0,4.003,0.309,4.978,0.928c1.196,0.84,1.792,2.367,1.792,4.579v12.147c0,1.815-0.366,3.108-1.094,3.884 c-0.731,0.775-1.958,1.206-3.684,1.294v0.132c3.318,0.223,4.978,1.704,4.978,4.447v20.51H180.139z"></path><rect x="195.143" y="143.99" style="fill:#21445B;" width="4.379" height="47.92"></rect><path style="fill:#21445B;" d="M221.026,174.918l-3.319-27.609h-0.132l-3.319,27.609H221.026z M223.285,191.911l-1.794-13.274 h-7.698l-1.792,13.274h-4.382l7.037-47.92h5.974l7.034,47.92H223.285z"></path><polygon style="fill:#21445B;" points="248.639,191.911 248.639,143.99 260.255,143.99 260.255,147.706 253.018,147.706  253.018,165.162 259.923,165.162 259.923,168.88 253.018,168.88 253.018,188.193 260.255,188.193 260.255,191.911 "></polygon><polygon style="fill:#21445B;" points="281.225,143.99 285.075,143.99 285.075,191.911 278.764,191.911 273.195,149.3  273.195,191.911 269.345,191.911 269.345,143.99 275.788,143.99 281.225,185.007 "></polygon><rect x="308.239" y="143.99" style="fill:#21445B;" width="4.379" height="47.92"></rect><polygon style="fill:#21445B;" points="334.788,143.99 338.638,143.99 338.638,191.911 332.327,191.911 326.758,149.3  326.758,191.911 322.908,191.911 322.908,143.99 329.351,143.99 334.788,185.007 "></polygon><polygon style="fill:#21445B;" points="351.98,191.911 351.98,147.706 347.07,147.706 347.07,143.99 361.273,143.99  361.273,147.706 356.362,147.706 356.362,191.911 "></polygon><polygon style="fill:#21445B;" points="369.902,191.911 369.902,143.99 381.517,143.99 381.517,147.706 374.281,147.706  374.281,165.162 381.185,165.162 381.185,168.88 374.281,168.88 374.281,188.193 381.517,188.193 381.517,191.911 "></polygon><path style="fill:#21445B;" d="M398.243,172.131v-3.718h7.898v22.434c-2.435,0.975-4.734,1.46-6.902,1.46 c-5.489,0-8.231-2.808-8.231-8.429v-32.722c0-5.043,2.523-7.566,7.568-7.566c5.043,0,7.566,2.522,7.566,7.566v5.377h-4.379v-4.778 c0-2.963-1.062-4.447-3.186-4.447c-2.124,0-3.186,1.483-3.186,4.447v32.058c0,3.184,1.151,4.778,3.451,4.778 c1.283,0,2.258-0.22,2.921-0.664v-15.797H398.243z"></path><path style="fill:#21445B;" d="M421.075,165.162h2.919c2.168,0,3.254-1.151,3.254-3.451v-10.752c0-2.167-1.239-3.254-3.718-3.254 h-2.455V165.162z M427.445,191.911v-20.111c0-1.947-1.151-2.919-3.451-2.919h-2.919v23.031h-4.382v-47.92h8.164 c2.344,0,4.003,0.309,4.978,0.928c1.196,0.84,1.792,2.367,1.792,4.579v12.147c0,1.815-0.366,3.108-1.094,3.884 c-0.731,0.775-1.958,1.206-3.685,1.294v0.132c3.319,0.223,4.978,1.704,4.978,4.447v20.51H427.445z"></path><rect x="442.449" y="143.99" style="fill:#21445B;" width="4.38" height="47.92"></rect><path style="fill:#21445B;" d="M461.897,188.193h2.323c1.46,0,2.466-0.264,3.021-0.796c0.552-0.531,0.83-1.504,0.83-2.919v-33.054 c0-1.416-0.278-2.39-0.83-2.922c-0.555-0.529-1.561-0.796-3.021-0.796h-2.323V188.193z M457.515,191.911v-47.92h7.501 c2.831,0,4.823,0.708,5.974,2.123c0.972,1.195,1.46,3.075,1.46,5.642v32.39c0,2.567-0.487,4.446-1.46,5.642 c-1.151,1.416-3.143,2.123-5.974,2.123H457.515z"></path><path style="fill:#21445B;" d="M493.49,174.918l-3.319-27.609h-0.132l-3.319,27.609H493.49z M495.748,191.911l-1.794-13.274h-7.698 l-1.792,13.274h-4.382l7.037-47.92h5.974l7.034,47.92H495.748z"></path><path style="fill:#21445B;" d="M512.806,188.193h2.323c1.46,0,2.466-0.264,3.021-0.796c0.552-0.531,0.83-1.504,0.83-2.919v-33.054 c0-1.416-0.277-2.39-0.83-2.922c-0.555-0.529-1.561-0.796-3.021-0.796h-2.323V188.193z M508.424,191.911v-47.92h7.501 c2.831,0,4.823,0.708,5.974,2.123c0.972,1.195,1.46,3.075,1.46,5.642v32.39c0,2.567-0.488,4.446-1.46,5.642 c-1.151,1.416-3.142,2.123-5.974,2.123H508.424z"></path><path style="fill:#006A41;" d="M573.967,186.889c0.013-0.339,0.055-0.669,0.055-1.02c0-13.395-10.869-24.263-24.273-24.263 c-1.934,0-3.807,0.25-5.61,0.677v30.657h28.775C573.5,191.012,573.879,188.99,573.967,186.889z"></path><rect x="14.672" y="210.475" style="fill:#21445B;" width="713.211" height="1.581"></rect></svg>